<mxfile host="65bd71144e">
    <diagram id="AjgU2DGl8rbXOEsJkm3X" name="Page-1">
        <mxGraphModel dx="554" dy="437" grid="1" gridSize="10" guides="1" tooltips="1" connect="1" arrows="1" fold="1" page="1" pageScale="1" pageWidth="850" pageHeight="1100" math="0" shadow="0">
            <root>
                <mxCell id="0"/>
                <mxCell id="1" parent="0"/>
                <mxCell id="2" value="Company&lt;span style=&quot;white-space: pre&quot;&gt;&#9;&lt;/span&gt;&lt;br&gt;has_many: freebies&lt;br&gt;string :name&lt;br&gt;string :founding_year" style="whiteSpace=wrap;html=1;" vertex="1" parent="1">
                    <mxGeometry x="10" y="70" width="150" height="170" as="geometry"/>
                </mxCell>
                <mxCell id="3" value="Freebie&lt;br&gt;belongs_to :company&lt;br&gt;belongs_to :dev&lt;br&gt;" style="whiteSpace=wrap;html=1;" vertex="1" parent="1">
                    <mxGeometry x="183" y="70" width="150" height="170" as="geometry"/>
                </mxCell>
                <mxCell id="4" value="Dev&lt;br&gt;has_many :freebies&lt;br&gt;string :name" style="whiteSpace=wrap;html=1;" vertex="1" parent="1">
                    <mxGeometry x="360" y="70" width="150" height="170" as="geometry"/>
                </mxCell>
            </root>
        </mxGraphModel>
    </diagram>
</mxfile>